<svg width="180" height="68" viewBox="0 0 180 68" fill="none" xmlns="http://www.w3.org/2000/svg">
<g filter="url(#filter0_d_3_16)">
<rect x="4" width="171" height="60" fill="white"/>
<path d="M36.9579 41.2162V23.0344H40.802V38.0468H48.5968V41.2162H36.9579ZM67.1426 32.1253C67.1426 34.108 66.7668 35.7948 66.0151 37.1856C65.2694 38.5765 64.2514 39.6389 62.9611 40.3728C61.6768 41.1008 60.2327 41.4648 58.6288 41.4648C57.013 41.4648 55.5629 41.0978 54.2786 40.3639C52.9943 39.63 51.9792 38.5676 51.2335 37.1768C50.4878 35.7859 50.1149 34.1021 50.1149 32.1253C50.1149 30.1426 50.4878 28.4558 51.2335 27.0649C51.9792 25.674 52.9943 24.6146 54.2786 23.8866C55.5629 23.1527 57.013 22.7858 58.6288 22.7858C60.2327 22.7858 61.6768 23.1527 62.9611 23.8866C64.2514 24.6146 65.2694 25.674 66.0151 27.0649C66.7668 28.4558 67.1426 30.1426 67.1426 32.1253ZM63.2452 32.1253C63.2452 30.8409 63.0529 29.7579 62.6682 28.876C62.2894 27.9941 61.7538 27.3253 61.0613 26.8696C60.3688 26.4139 59.558 26.186 58.6288 26.186C57.6995 26.186 56.8887 26.4139 56.1962 26.8696C55.5038 27.3253 54.9652 27.9941 54.5805 28.876C54.2017 29.7579 54.0123 30.8409 54.0123 32.1253C54.0123 33.4096 54.2017 34.4927 54.5805 35.3746C54.9652 36.2564 55.5038 36.9252 56.1962 37.381C56.8887 37.8367 57.6995 38.0646 58.6288 38.0646C59.558 38.0646 60.3688 37.8367 61.0613 37.381C61.7538 36.9252 62.2894 36.2564 62.6682 35.3746C63.0529 34.4927 63.2452 33.4096 63.2452 32.1253ZM82.0463 28.9115C81.922 28.4794 81.7474 28.0977 81.5225 27.7663C81.2976 27.4289 81.0224 27.1448 80.6968 26.914C80.3772 26.6772 80.0103 26.4967 79.596 26.3724C79.1876 26.2481 78.7348 26.186 78.2377 26.186C77.3085 26.186 76.4917 26.4168 75.7874 26.8785C75.089 27.3401 74.5445 28.0119 74.1539 28.8937C73.7633 29.7697 73.5679 30.8409 73.5679 32.1075C73.5679 33.3741 73.7603 34.4513 74.145 35.3391C74.5297 36.2268 75.0742 36.9045 75.7785 37.3721C76.4828 37.8337 77.3144 38.0646 78.2732 38.0646C79.1432 38.0646 79.886 37.9107 80.5015 37.6029C81.123 37.2892 81.5965 36.8483 81.922 36.2801C82.2534 35.7119 82.4191 35.0402 82.4191 34.2648L83.2004 34.3802H78.5129V31.4861H86.1212V33.7766C86.1212 35.3746 85.7838 36.7477 85.1091 37.8959C84.4344 39.0382 83.5052 39.92 82.3215 40.5415C81.1378 41.157 79.7824 41.4648 78.2554 41.4648C76.5509 41.4648 75.0535 41.0889 73.7633 40.3373C72.473 39.5797 71.4668 38.5055 70.7448 37.1146C70.0286 35.7178 69.6706 34.0606 69.6706 32.143C69.6706 30.6693 69.8836 29.3554 70.3098 28.2013C70.7418 27.0412 71.3455 26.0588 72.1208 25.2538C72.8962 24.4489 73.7988 23.8363 74.8286 23.4161C75.8584 22.9959 76.9741 22.7858 78.1755 22.7858C79.2054 22.7858 80.1642 22.9367 81.052 23.2386C81.9397 23.5345 82.7269 23.9547 83.4135 24.4992C84.1059 25.0437 84.6712 25.6918 85.1091 26.4435C85.5471 27.1892 85.8282 28.0119 85.9525 28.9115H82.0463ZM105.717 32.1253C105.717 34.108 105.341 35.7948 104.589 37.1856C103.844 38.5765 102.826 39.6389 101.535 40.3728C100.251 41.1008 98.8069 41.4648 97.203 41.4648C95.5872 41.4648 94.1372 41.0978 92.8528 40.3639C91.5685 39.63 90.5535 38.5676 89.8077 37.1768C89.062 35.7859 88.6891 34.1021 88.6891 32.1253C88.6891 30.1426 89.062 28.4558 89.8077 27.0649C90.5535 25.674 91.5685 24.6146 92.8528 23.8866C94.1372 23.1527 95.5872 22.7858 97.203 22.7858C98.8069 22.7858 100.251 23.1527 101.535 23.8866C102.826 24.6146 103.844 25.674 104.589 27.0649C105.341 28.4558 105.717 30.1426 105.717 32.1253ZM101.819 32.1253C101.819 30.8409 101.627 29.7579 101.242 28.876C100.864 27.9941 100.328 27.3253 99.6355 26.8696C98.943 26.4139 98.1322 26.186 97.203 26.186C96.2738 26.186 95.4629 26.4139 94.7704 26.8696C94.078 27.3253 93.5394 27.9941 93.1547 28.876C92.7759 29.7579 92.5865 30.8409 92.5865 32.1253C92.5865 33.4096 92.7759 34.4927 93.1547 35.3746C93.5394 36.2564 94.078 36.9252 94.7704 37.381C95.4629 37.8367 96.2738 38.0646 97.203 38.0646C98.1322 38.0646 98.943 37.8367 99.6355 37.381C100.328 36.9252 100.864 36.2564 101.242 35.3746C101.627 34.4927 101.819 33.4096 101.819 32.1253ZM119.795 23.0344H123.639V34.8419C123.639 36.1677 123.322 37.3277 122.689 38.322C122.062 39.3163 121.183 40.0917 120.052 40.648C118.922 41.1984 117.605 41.4736 116.102 41.4736C114.592 41.4736 113.273 41.1984 112.142 40.648C111.012 40.0917 110.133 39.3163 109.505 38.322C108.878 37.3277 108.564 36.1677 108.564 34.8419V23.0344H112.408V34.5134C112.408 35.2059 112.559 35.8214 112.861 36.36C113.169 36.8986 113.601 37.3218 114.157 37.6295C114.714 37.9373 115.362 38.0912 116.102 38.0912C116.847 38.0912 117.495 37.9373 118.046 37.6295C118.602 37.3218 119.031 36.8986 119.333 36.36C119.641 35.8214 119.795 35.2059 119.795 34.5134V23.0344ZM126.109 26.2038V23.0344H141.042V26.2038H135.475V41.2162H131.676V26.2038H126.109Z" fill="black"/>
</g>
<defs>
<filter id="filter0_d_3_16" x="0" y="0" width="179" height="68" filterUnits="userSpaceOnUse" color-interpolation-filters="sRGB">
<feFlood flood-opacity="0" result="BackgroundImageFix"/>
<feColorMatrix in="SourceAlpha" type="matrix" values="0 0 0 0 0 0 0 0 0 0 0 0 0 0 0 0 0 0 127 0" result="hardAlpha"/>
<feOffset dy="4"/>
<feGaussianBlur stdDeviation="2"/>
<feComposite in2="hardAlpha" operator="out"/>
<feColorMatrix type="matrix" values="0 0 0 0 0 0 0 0 0 0 0 0 0 0 0 0 0 0 0.25 0"/>
<feBlend mode="normal" in2="BackgroundImageFix" result="effect1_dropShadow_3_16"/>
<feBlend mode="normal" in="SourceGraphic" in2="effect1_dropShadow_3_16" result="shape"/>
</filter>
</defs>
</svg>
